<svg width="507" height="530" viewBox="0 0 507 530" fill="none" xmlns="http://www.w3.org/2000/svg">
<path d="M272.816 7.09338C275.92 9.85943 278.895 12.7519 281.863 15.6637C283.121 16.8645 283.121 16.8645 284.405 18.0895C288.445 22.0008 288.445 22.0008 289.863 23.6637C289.863 24.3237 289.863 24.9837 289.863 25.6637C290.451 25.9272 291.039 26.1907 291.645 26.4622C293.959 27.7161 295.487 29.0343 297.346 30.8883C298.336 31.8694 298.336 31.8694 299.347 32.8704C300.048 33.5756 300.749 34.2808 301.472 35.0074C302.562 36.0948 302.562 36.0948 303.674 37.2041C305.206 38.7349 306.736 40.2682 308.263 41.8038C310.611 44.1618 312.968 46.5089 315.327 48.8551C316.814 50.3427 318.299 51.831 319.784 53.3199C320.494 54.0252 321.203 54.7304 321.934 55.457C322.582 56.1111 323.229 56.7652 323.897 57.4391C324.471 58.0149 325.045 58.5906 325.637 59.1838C326.863 60.6637 326.863 60.6637 326.863 62.6637C327.44 62.9112 328.018 63.1587 328.613 63.4137C331.192 64.8467 332.924 66.4479 334.863 68.6637C334.863 69.3237 334.863 69.9837 334.863 70.6637C335.445 70.9215 336.028 71.1793 336.628 71.4449C339.043 72.762 340.68 74.2146 342.613 76.1637C343.226 76.7721 343.84 77.3806 344.472 78.0074C345.863 79.6637 345.863 79.6637 345.863 81.6637C346.502 81.9318 347.141 82.1999 347.8 82.4762C349.863 83.6637 349.863 83.6637 350.863 86.6637C352.779 87.8304 352.779 87.8304 354.863 88.6637C355.523 88.9937 356.183 89.3237 356.863 89.6637C356.847 88.6651 356.831 87.6666 356.815 86.6378C356.76 82.9143 356.726 79.1907 356.698 75.4669C356.683 73.8588 356.662 72.2507 356.636 70.6427C356.6 68.3241 356.583 66.006 356.57 63.6871C356.546 62.618 356.546 62.618 356.523 61.5273C356.521 55.6479 358.028 51.7204 361.925 47.3512C365.375 44.3463 368.355 44.3462 372.769 43.9449C374.917 43.7715 374.917 43.7715 376.863 42.6637C377.543 42.8287 378.224 42.9937 378.925 43.1637C383.013 43.8595 386.782 43.2415 390.863 42.6637C390.863 43.3237 390.863 43.9837 390.863 44.6637C391.686 44.4104 391.686 44.4104 392.527 44.152C398.267 42.952 404.171 43.818 409.363 46.4137C412.424 49.1693 414.554 51.4656 415.145 55.6818C415.272 58.2011 415.299 60.7049 415.295 63.2274C415.305 64.184 415.315 65.1406 415.326 66.1261C415.356 69.2806 415.365 72.4348 415.374 75.5895C415.391 77.7795 415.409 79.9696 415.429 82.1596C415.476 87.9184 415.506 93.6772 415.532 99.4361C415.562 105.315 415.608 111.193 415.654 117.072C415.74 128.602 415.807 140.133 415.863 151.664C416.523 151.664 417.183 151.664 417.863 151.664C419.019 153.058 420.171 154.457 421.3 155.875C423.63 158.543 426.296 160.766 428.995 163.05C430.71 164.532 432.358 165.968 433.863 167.664C433.863 168.324 433.863 168.984 433.863 169.664C434.523 169.664 435.183 169.664 435.863 169.664C437.413 171.238 437.413 171.238 439.175 173.351C442.748 177.545 446.312 181.458 450.675 184.851C451.397 185.449 452.119 186.047 452.863 186.664C452.863 187.324 452.863 187.984 452.863 188.664C453.523 188.664 454.183 188.664 454.863 188.664C456.488 190.039 456.488 190.039 457.863 191.664C457.863 192.324 457.863 192.984 457.863 193.664C458.523 193.664 459.183 193.664 459.863 193.664C459.863 194.324 459.863 194.984 459.863 195.664C460.523 195.664 461.183 195.664 461.863 195.664C463.068 197.104 464.269 198.548 465.441 200.015C467.636 202.56 470.259 204.549 472.863 206.664C474.549 208.31 476.218 209.976 477.863 211.664C478.626 212.386 479.389 213.107 480.175 213.851C481.863 215.664 481.863 215.664 481.863 217.664C482.431 217.905 482.999 218.146 483.585 218.394C486.31 219.913 488.129 221.738 490.3 223.976C491.088 224.784 491.875 225.593 492.687 226.425C493.405 227.164 494.123 227.903 494.863 228.664C495.77 229.53 496.678 230.396 497.613 231.289C503.635 237.646 506.371 242.859 506.265 251.742C505.472 257.501 502.34 261.54 497.999 265.261C493.48 268.368 488.421 270.785 482.863 270.664C478.656 269.387 474.809 267.582 470.863 265.664C469.96 265.359 469.058 265.055 468.128 264.742C465.387 263.437 465.061 262.362 463.863 259.664C463.859 261.362 463.859 261.362 463.855 263.094C463.796 290.672 463.72 318.249 463.627 345.826C463.582 359.162 463.542 372.498 463.516 385.834C463.493 397.461 463.46 409.088 463.414 420.715C463.39 426.869 463.371 433.022 463.365 439.176C463.359 444.975 463.339 450.773 463.308 456.572C463.299 458.694 463.296 460.815 463.298 462.937C463.309 482.264 461.667 498.759 447.675 513.539C435.818 524.681 423.449 529.038 407.437 529.343C406.154 529.376 404.871 529.409 403.55 529.443C383.178 529.925 362.789 529.816 342.413 529.793C338.636 529.789 334.86 529.786 331.084 529.783C312.924 529.768 294.765 529.73 276.606 529.683C271.246 529.67 265.885 529.657 260.525 529.644C237.285 529.591 214.046 529.522 190.806 529.425C188.766 529.416 186.726 529.408 184.686 529.399C183.679 529.395 182.671 529.391 181.633 529.387C174.521 529.358 167.41 529.336 160.298 529.318C151.549 529.295 142.8 529.262 134.051 529.215C129.531 529.191 125.011 529.172 120.491 529.166C116.308 529.16 112.125 529.14 107.942 529.109C106.426 529.101 104.911 529.097 103.395 529.099C87.6625 529.111 72.5445 525.891 60.7375 514.699C54.1504 507.549 49.2786 500.137 46.8625 490.664C46.6964 490.019 46.5303 489.374 46.3592 488.709C44.1565 478.666 44.5537 468.445 44.5437 458.22C44.5344 456.051 44.5242 453.881 44.5132 451.712C44.486 445.85 44.4708 439.987 44.4578 434.124C44.4421 427.987 44.4153 421.851 44.3898 415.714C44.343 404.105 44.3063 392.496 44.2731 380.887C44.2348 367.666 44.1854 354.445 44.1351 341.223C44.0319 314.037 43.9426 286.85 43.8625 259.664C43.3935 260.076 42.9244 260.488 42.4411 260.912C41.5089 261.723 41.5089 261.723 40.5578 262.55C39.9444 263.086 39.331 263.622 38.6989 264.174C32.7758 268.978 26.3225 270.275 18.8625 269.664C11.8105 267.806 6.65431 265.012 2.86251 258.664C0.242805 253.222 -0.934784 248.584 0.86251 242.664C4.8295 234.471 11.8827 228.358 18.3444 222.136C19.7467 220.776 21.1242 219.391 22.4992 218.004C25.2775 215.253 28.2103 212.741 31.1906 210.214C32.9658 208.75 32.9658 208.75 33.8625 206.664C34.5225 206.664 35.1825 206.664 35.8625 206.664C35.8625 206.004 35.8625 205.344 35.8625 204.664C39.2374 200.972 43.0015 197.755 46.8 194.507C49.2518 192.316 51.5514 190.003 53.8625 187.664C63.8625 177.664 63.8625 177.664 66.468 175.093C69.0431 172.48 71.3838 169.741 73.7258 166.922C75.533 165.012 77.3451 163.368 79.343 161.67C84.5689 157.119 89.4275 152.224 94.3117 147.312C95.297 146.325 96.2825 145.338 97.2682 144.351C99.8413 141.775 102.411 139.195 104.981 136.614C107.591 133.993 110.204 131.376 112.818 128.757C117.416 124.149 122.012 119.539 126.607 114.926C128.242 113.286 129.886 111.653 131.535 110.025C133.877 107.748 133.877 107.748 135.675 105.289C137.461 103.146 139.068 101.568 141.175 99.7887C147.538 94.3625 153.312 88.2974 159.186 82.3546C160.652 80.8758 162.131 79.4093 163.613 77.9449C165.573 75.9569 167.385 73.9292 169.175 71.7887C172.183 68.3032 175.433 65.3645 178.941 62.3942C181.385 60.1931 183.462 57.7876 185.538 55.2418C186.91 53.6068 188.267 52.0837 189.863 50.6637C190.523 50.6637 191.183 50.6637 191.863 50.6637C192.117 50.0853 192.371 49.5068 192.632 48.9109C194.001 46.4111 195.536 44.7298 197.543 42.7089C198.675 41.5623 198.675 41.5623 199.83 40.3926C200.648 39.5758 201.465 38.7591 202.308 37.9176C203.152 37.0695 203.995 36.2213 204.865 35.3475C206.653 33.5538 208.443 31.7627 210.237 29.974C212.965 27.2488 215.68 24.5106 218.394 21.7711C220.135 20.0275 221.877 18.2846 223.62 16.5426C224.829 15.3205 224.829 15.3205 226.061 14.0737C239.372 0.869828 256.717 -6.15144 272.816 7.09338ZM238.863 188.664C237.385 188.775 235.905 188.851 234.425 188.914C228.885 189.358 223.757 190.608 218.425 192.101C217.644 192.319 216.863 192.536 216.058 192.76C212.466 193.795 209.146 194.85 205.863 196.664C204.706 197.224 203.55 197.785 202.359 198.363C191.293 203.759 181.16 209.564 171.675 217.476C171.097 217.957 170.52 218.437 169.924 218.932C168.529 220.129 167.19 221.391 165.863 222.664C165.863 223.324 165.863 223.984 165.863 224.664C164.872 224.994 163.883 225.324 162.863 225.664C140.661 249.345 129.51 280.454 129.863 312.664C131.105 342.863 143.183 369.247 158.649 394.668C159.511 396.086 160.362 397.511 161.205 398.941C161.645 399.675 162.085 400.408 162.538 401.164C162.936 401.834 163.333 402.504 163.743 403.195C164.112 403.68 164.482 404.164 164.863 404.664C165.523 404.664 166.183 404.664 166.863 404.664C166.973 405.242 167.083 405.82 167.196 406.415C167.942 408.933 168.978 410.523 170.523 412.64C171.065 413.388 171.607 414.136 172.166 414.907C173.037 416.086 173.037 416.086 173.925 417.289C174.518 418.1 175.11 418.911 175.721 419.746C179.345 424.68 183.05 429.53 186.925 434.269C189.189 437.067 191.369 439.926 193.55 442.789C198.511 449.283 203.661 455.617 208.831 461.945C211.241 464.895 213.622 467.866 215.988 470.851C219.477 475.23 223.079 479.506 226.72 483.76C229.762 487.323 232.666 490.97 235.55 494.664C239.998 500.112 244.225 503.665 251.05 505.539C257.742 505.836 262.756 503.541 267.738 499.101C270.082 496.951 270.082 496.951 269.863 494.664C270.523 494.664 271.183 494.664 271.863 494.664C273.469 492.93 275 491.126 276.488 489.289C277.713 487.792 277.713 487.792 278.964 486.265C281.059 483.931 281.059 483.931 280.863 481.664C281.523 481.664 282.183 481.664 282.863 481.664C284.693 479.734 284.693 479.734 286.675 477.164C287.477 476.161 288.279 475.158 289.105 474.125C289.545 473.57 289.986 473.015 290.44 472.444C291.945 470.561 293.468 468.693 294.995 466.828C300.94 459.568 306.795 452.254 312.48 444.789C314.058 442.719 315.647 440.656 317.245 438.601C329.73 422.544 341.183 405.978 351.863 388.664C352.268 388.015 352.674 387.366 353.092 386.697C368.003 362.742 379.744 332.368 377.863 303.664C377.533 302.674 377.203 301.684 376.863 300.664C376.882 299.474 376.901 298.284 376.921 297.058C376.981 292.3 376.028 287.96 374.925 283.351C374.651 282.155 374.651 282.155 374.372 280.935C373.445 275.377 373.445 275.377 370.863 270.664C370.518 269.333 370.187 267.999 369.863 266.664C365.234 251.033 355.439 235.936 342.863 225.664C341.245 223.89 341.245 223.89 339.988 222.289C328.254 208.323 308.514 197.352 290.863 192.664C289.696 192.326 288.529 191.988 287.327 191.64C277.986 189.034 268.609 187.299 258.863 187.664C258.203 188.324 257.543 188.984 256.863 189.664C253.238 189.789 253.238 189.789 249.863 189.664C250.193 189.004 250.523 188.344 250.863 187.664C249.05 187.637 247.238 187.617 245.425 187.601C243.911 187.584 243.911 187.584 242.366 187.566C239.922 187.378 239.922 187.378 238.863 188.664Z" fill="#00AFB8"/>
<path d="M316.245 230.004C319.702 232.856 322.971 235.885 326.217 238.972C326.972 239.648 327.726 240.323 328.503 241.019C346.319 257.596 357.327 282.622 358.385 306.812C358.814 344.279 342.072 377.184 320.217 406.972C319.072 408.59 317.927 410.208 316.784 411.827C308.292 423.814 299.5 435.585 290.217 446.972C289.196 448.231 288.176 449.49 287.155 450.75C281.553 457.657 275.937 464.553 270.288 471.422C268.827 473.222 267.386 475.039 265.96 476.867C264.881 478.249 264.881 478.249 263.78 479.66C263.142 480.489 262.504 481.318 261.846 482.172C261.309 482.766 260.771 483.36 260.217 483.972C259.557 483.972 258.897 483.972 258.217 483.972C257.908 484.808 257.908 484.808 257.592 485.66C255.667 488.897 253.179 490.655 250.217 492.972C246.441 490.149 243.574 487.168 240.655 483.472C237.984 480.103 235.265 477.001 232.217 473.972C231.295 472.806 230.399 471.618 229.53 470.41C225.622 465.104 221.402 460.061 217.217 454.972C180.378 409.946 141.749 359.894 145.217 298.972C146.012 292.505 147.503 286.25 149.217 279.972C149.554 278.64 149.888 277.307 150.217 275.972C150.547 276.302 150.877 276.632 151.217 276.972C151.413 276.401 151.609 275.83 151.811 275.242C161.473 249.048 183.235 228.657 208.127 216.876C213.479 214.562 219.048 212.826 224.612 211.101C228.01 210.143 228.01 210.143 230.217 208.972C232.631 208.765 235.049 208.605 237.467 208.472C242.773 208.206 242.773 208.206 247.999 207.344C269.941 204.814 299.176 216.645 316.245 230.004ZM212.217 283.347C202.389 296.193 201.36 308.37 202.217 323.972C202.72 327.654 203.617 330.629 205.217 333.972C205.682 334.943 206.146 335.914 206.624 336.914C213.059 349.04 222.91 357.388 236.075 361.561C248.978 365.106 262.127 363.692 273.964 357.547C286.824 350.152 295.08 340.396 299.217 325.972C299.504 325.056 299.504 325.056 299.796 324.121C302.218 311.785 300.091 298.594 293.28 288.035C292.28 286.665 291.26 285.31 290.217 283.972C289.782 283.386 289.346 282.799 288.897 282.195C286.393 278.975 283.958 276.646 280.217 274.972C279.227 275.302 278.237 275.632 277.217 275.972C277.547 274.982 277.877 273.992 278.217 272.972C271.105 269.037 265.371 266.373 257.217 265.972C256.722 265.477 256.722 265.477 256.217 264.972C238.811 262.874 223.435 270.408 212.217 283.347Z" fill="#FD8F09"/>
<path d="M373.862 324.664C374.862 328.664 374.862 328.664 374.862 328.664L373.862 324.664Z" fill="#5EA57B"/>
<path d="M358.862 246.664C359.862 250.664 359.862 250.664 359.862 250.664L358.862 246.664Z" fill="#68B179"/>
<path d="M216.862 207.664C220.862 208.664 220.862 208.664 220.862 208.664L216.862 207.664Z" fill="#D7A926"/>
<path d="M226.862 479.664C228.862 480.664 228.862 480.664 228.862 480.664L226.862 479.664Z" fill="#7A8D7F"/>
<path d="M180.862 400.664C182.862 401.664 182.862 401.664 182.862 401.664L180.862 400.664Z" fill="#D67C39"/>
<path d="M178.862 398.664C180.862 399.664 180.862 399.664 180.862 399.664L178.862 398.664Z" fill="#D8803A"/>
<path d="M273.862 351.664C275.862 352.664 275.862 352.664 275.862 352.664L273.862 351.664Z" fill="#F98E0E"/>
<path d="M281.862 343.664C283.862 344.664 283.862 344.664 283.862 344.664L281.862 343.664Z" fill="#FE9310"/>
<path d="M270.862 266.664C272.862 267.664 272.862 267.664 272.862 267.664L270.862 266.664Z" fill="#FEA307"/>
<path d="M357.862 254.664C359.862 255.664 359.862 255.664 359.862 255.664L357.862 254.664Z" fill="#81B167"/>
<path d="M350.862 236.664C352.862 237.664 352.862 237.664 352.862 237.664L350.862 236.664Z" fill="#67B173"/>
<path d="M287.862 208.664C289.862 209.664 289.862 209.664 289.862 209.664L287.862 208.664Z" fill="#D9AC23"/>
<path d="M187.862 206.664C189.862 207.664 189.862 207.664 189.862 207.664L187.862 206.664Z" fill="#68AF7B"/>
<path d="M291.862 194.664C293.862 195.664 293.862 195.664 293.862 195.664L291.862 194.664Z" fill="#75B371"/>
<path d="M243.862 189.664C245.862 190.664 245.862 190.664 245.862 190.664L243.862 189.664Z" fill="#74B471"/>
<path d="M235.862 189.664C237.862 190.664 237.862 190.664 237.862 190.664L235.862 189.664Z" fill="#66B276"/>
</svg>
